<svg width="32" height="32" viewBox="0 0 32 32" fill="none" xmlns="http://www.w3.org/2000/svg">
<rect width="32" height="32" fill="#E7E7E1"/>
<path d="M25.7532 10.957C25.2815 9.90494 24.6647 8.96144 23.8665 8.16325C23.0683 7.36506 22.1251 6.74829 21.0728 6.27657C20.0208 5.80483 18.8597 5.58716 17.6623 5.58716C16.465 5.58716 15.3403 5.80481 14.2518 6.27657C13.1998 6.7483 12.2563 7.36506 11.4581 8.16325C10.6599 8.96144 10.007 9.90468 9.57143 10.957C9.09969 12.009 8.88202 13.1701 8.88202 14.3675C8.88202 15.2383 8.99084 16.0727 9.24493 16.9071C9.49902 17.7415 9.86168 18.5035 10.3334 19.1929L5.61682 23.9456C5.39914 23.8004 5.87091 24.1633 5.61682 23.9456C5.61682 23.9456 7.93882 26.4129 8.08408 26.4129L12.8369 21.6963C13.5624 22.168 14.3244 22.5307 15.1588 22.7848C15.9933 23.0389 16.8279 23.1477 17.6623 23.1477C18.8596 23.1477 20.0205 22.93 21.0728 22.4583C22.1248 21.9866 23.0683 21.3698 23.8665 20.5716C24.6647 19.7734 25.3176 18.8302 25.7532 17.7779C26.2249 16.7259 26.4426 15.5647 26.4426 14.3674C26.4062 13.1336 26.1885 12.0091 25.7532 10.957ZM24.1206 17.1247C23.7577 17.9591 23.2498 18.7211 22.5968 19.3379C21.9801 19.9546 21.2181 20.4625 20.3475 20.8254C19.4766 21.1884 18.5696 21.3696 17.6264 21.3696C16.6829 21.3696 15.7759 21.1881 14.905 20.8254C14.0342 20.4625 13.3086 19.9546 12.6919 19.3379C12.0389 18.7211 11.5672 17.9591 11.1681 17.1247C10.8051 16.2903 10.5875 15.3469 10.5875 14.3674C10.5875 13.3877 10.769 12.5171 11.1681 11.6463C11.531 10.7755 12.0389 10.0499 12.6919 9.39694C13.3086 8.74401 14.0706 8.27229 14.905 7.87313C15.7394 7.51022 16.6464 7.32902 17.6261 7.32902C18.6058 7.32902 19.5128 7.51048 20.3472 7.87313C21.218 8.23605 21.9436 8.74395 22.5966 9.39694C23.2133 10.0499 23.7212 10.7757 24.1204 11.6463C24.4833 12.4807 24.7009 13.3877 24.7009 14.3674C24.6647 15.3468 24.4833 16.2538 24.1206 17.1247Z" fill="black"/>
</svg>
