<svg width="32" height="32" viewBox="0 0 32 32" fill="none" xmlns="http://www.w3.org/2000/svg">
<rect width="32" height="32" fill="#161412"/>
<path fill-rule="evenodd" clip-rule="evenodd" d="M9.92552 8.70837H7.66675V9.95837H9.45215L11.7744 18.2096L11.9027 18.6652H12.376H21.8456H22.308L22.4432 18.223L24.5199 11.4322L24.7669 10.6244H23.9222H12.376V11.8744H23.0775L21.3831 17.4152H12.8494L10.5272 9.16405L10.3989 8.70837H9.92552ZM13.8572 20.4346C13.4134 20.4346 13.0536 20.7943 13.0536 21.2381C13.0536 21.6819 13.4134 22.0417 13.8572 22.0417C14.301 22.0417 14.6608 21.6819 14.6608 21.2381C14.6608 20.7943 14.301 20.4346 13.8572 20.4346ZM11.8036 21.2381C11.8036 20.104 12.7231 19.1846 13.8572 19.1846C14.9914 19.1846 15.9108 20.104 15.9108 21.2381C15.9108 22.3723 14.9914 23.2917 13.8572 23.2917C12.7231 23.2917 11.8036 22.3723 11.8036 21.2381ZM20.5239 20.4346C20.0801 20.4346 19.7203 20.7943 19.7203 21.2381C19.7203 21.6819 20.0801 22.0417 20.5239 22.0417C20.9677 22.0417 21.3275 21.6819 21.3275 21.2381C21.3275 20.7943 20.9677 20.4346 20.5239 20.4346ZM18.4703 21.2381C18.4703 20.104 19.3897 19.1846 20.5239 19.1846C21.658 19.1846 22.5775 20.104 22.5775 21.2381C22.5775 22.3723 21.658 23.2917 20.5239 23.2917C19.3897 23.2917 18.4703 22.3723 18.4703 21.2381Z" fill="white"/>
</svg>
